<?xml version="1.0" standalone="no"?>
<svg viewBox="0 0 170 175" xmlns="http://www.w3.org/2000/svg">
  <path fill="#FCDBB5" d="M33.2,-57.7C46.5,-49.8,63.2,-48,74,-39.3C84.8,-30.7,89.7,-15.4,89.3,-0.3C88.8,14.8,82.9,29.7,72.8,39.4C62.6,49.1,48.2,53.7,35.3,59.7C22.5,65.6,11.2,72.7,-1,74.4C-13.2,76.2,-26.4,72.4,-35.7,64.4C-44.9,56.4,-50.1,44.2,-56.8,32.7C-63.5,21.3,-71.6,10.7,-75.7,-2.4C-79.8,-15.4,-79.9,-30.8,-74.9,-45C-69.8,-59.3,-59.6,-72.4,-46.2,-80.3C-32.9,-88.2,-16.4,-90.9,-3.3,-85.3C9.9,-79.7,19.9,-65.7,33.2,-57.7Z" transform="translate(100 100)" />
</svg>
