<?xml version="1.0" standalone="no"?>
<svg viewBox="0 0 150 170" xmlns="http://www.w3.org/2000/svg">
  <path fill="#FCDBB5" d="M37.1,-67.2C46.8,-58.6,52.6,-46.2,60.3,-34.3C68,-22.5,77.7,-11.2,76.4,-0.7C75.2,9.8,63.1,19.6,55.5,31.6C47.8,43.5,44.6,57.6,36.1,62.6C27.6,67.6,13.8,63.7,-0.5,64.5C-14.7,65.3,-29.5,70.9,-41.8,68.1C-54.1,65.3,-64.1,54,-68.2,41.3C-72.4,28.5,-70.7,14.3,-72,-0.7C-73.2,-15.7,-77.5,-31.4,-73,-43.6C-68.5,-55.7,-55.3,-64.3,-41.7,-70.6C-28,-76.9,-14,-81,-0.2,-80.7C13.7,-80.4,27.3,-75.7,37.1,-67.2Z" transform="translate(100 100)" />
</svg>
